<svg width="32" height="30" viewBox="0 0 32 30" fill="none" xmlns="http://www.w3.org/2000/svg">
<path d="M1.12 0.5068C0.955194 0.667094 0.824443 0.857492 0.735231 1.0671C0.64602 1.2767 0.600099 1.5014 0.600099 1.72832C0.600099 1.95524 0.64602 2.17993 0.735231 2.38954C0.824443 2.59914 0.955194 2.78954 1.12 2.94984L7.62667 9.29133L7.11111 9.81113H1.77778C0.8 9.81113 0 10.5908 0 11.5438V18.4744C0 19.4273 0.8 20.207 1.77778 20.207H7.11111L12.96 25.9074C14.08 26.999 16 26.2193 16 24.6773V17.4521L23.4311 24.6946C22.56 25.3357 21.6178 25.8728 20.5867 26.2713C19.9467 26.5312 19.5556 27.1896 19.5556 27.8653C19.5556 29.1128 20.8533 29.9099 22.0267 29.4421C23.4489 28.8703 24.7822 28.1079 25.9733 27.1723L28.3556 29.494C28.5201 29.6544 28.7155 29.7817 28.9306 29.8685C29.1456 29.9553 29.3761 30 29.6089 30C29.8417 30 30.0721 29.9553 30.2872 29.8685C30.5022 29.7817 30.6976 29.6544 30.8622 29.494C31.0268 29.3336 31.1574 29.1432 31.2464 28.9336C31.3355 28.724 31.3814 28.4994 31.3814 28.2725C31.3814 28.0457 31.3355 27.821 31.2464 27.6114C31.1574 27.4018 31.0268 27.2114 30.8622 27.051L3.64444 0.5068C2.95111 -0.168933 1.83111 -0.168933 1.12 0.5068ZM28.4444 15.0091C28.4444 16.4298 28.1778 17.7986 27.7156 19.0635L30.4356 21.7144C31.4311 19.6872 32 17.4175 32 15.0091C32 8.37303 27.7333 2.68994 21.7244 0.45482C20.6756 0.0563107 19.5556 0.85333 19.5556 1.9449V2.2741C19.5556 2.93251 20 3.50428 20.64 3.74685C25.2089 5.54881 28.4444 9.91509 28.4444 15.0091ZM12.96 4.11071L12.6578 4.40526L16 7.66264V5.32357C16 3.78151 14.08 3.01914 12.96 4.11071ZM24 15.0091C23.9996 13.5573 23.5834 12.1345 22.7982 10.9009C22.0129 9.66721 20.8899 8.67172 19.5556 8.0265V11.1279L23.9644 15.4249C23.9822 15.2863 24 15.1477 24 15.0091Z" fill="black"/>
</svg>
